<svg width="114" height="28" viewBox="0 0 114 28" fill="none" xmlns="http://www.w3.org/2000/svg">
<path d="M13.1543 0.0462346C15.3373 -0.0292353 17.657 0.0468033 19.853 0.0209983C20.4147 0.0144047 23.5001 -0.0241128 23.8704 0.0940018C24.0579 0.745671 22.5284 13.0444 22.3946 14.3221C22.3546 14.7044 21.9398 17.2111 21.9866 17.4035C22.1544 17.3706 22.4306 17.0164 22.5253 16.872C23.2231 15.8082 23.9301 14.8036 24.6758 13.774C26.5315 11.2352 28.4022 8.70708 30.2876 6.18987C31.7722 4.18892 33.3286 2.02899 34.8538 0.06739C35.3788 0.00420597 36.2458 0.0242709 36.7904 0.0231798L40.0873 0.0233232L43.6987 0.024888C44.3459 0.0248406 45.2531 7.92574e-05 45.8807 0.0545354C45.6242 0.591885 45.3042 1.44886 45.0706 2.02126C44.3445 3.82523 43.637 5.63658 42.9482 7.45497C41.3265 11.6486 39.6522 15.9092 38.0954 20.1229L36.3065 24.8664C36.0977 25.4285 35.4801 27.2024 35.2111 27.6516C32.8332 27.6957 30.4366 27.6124 28.0559 27.6717C27.953 27.6743 27.8981 27.663 27.822 27.5984C27.8679 27.4005 27.9353 27.21 28.0014 27.018C28.4465 25.7258 28.9684 24.4627 29.4446 23.1817L32.0503 16.3173C32.3999 15.4214 32.731 14.4889 33.1064 13.6083C33.3243 13.1011 34.3618 10.5823 34.3293 10.2941C34.0446 10.2069 31.5735 13.9496 31.2387 14.413L25.3122 22.4779C24.4915 23.6069 23.6578 24.7265 22.8114 25.8366C22.523 26.2196 21.5582 27.6222 21.3451 27.6234C19.863 27.6316 16.0085 27.7166 14.6826 27.6437C14.6717 27.3409 14.7297 26.7098 14.7499 26.3754C14.8198 25.2232 14.941 24.0641 15.0403 22.9119L15.9412 12.58C15.9752 12.1467 16.2162 10.1204 16.1726 9.89876L16.1046 9.86327C15.7358 10.1648 14.8067 12.6283 14.531 13.236L11.9886 18.9513C11.5318 19.9678 11.0264 20.9937 10.5847 22.0072L9.12778 25.3331C8.86028 25.947 8.38809 27.0709 8.06121 27.6237C7.40701 27.7062 5.82286 27.6484 5.07294 27.6525L1.914 27.6651C1.3713 27.6656 0.526936 27.6914 0.0179133 27.6094L0 27.5407C0.0757612 27.2162 0.364092 26.6502 0.506778 26.319C0.967459 25.2495 1.48957 24.2052 1.98584 23.1522L5.8659 14.8223C7.59498 11.0919 9.34752 7.3721 11.1234 3.66329C11.4813 2.91438 11.8354 2.16366 12.1856 1.41114C12.3644 1.02924 12.5402 0.607159 12.7602 0.248309C12.8716 0.0664413 12.9603 0.0837562 13.1543 0.0462346Z" fill="#0F172A"/>
<path d="M102.373 0.0380863C104.195 -0.038949 106.402 0.0265113 108.262 0.0158857L111.826 0.0144163C112.506 0.0159817 113.341 -0.00517497 113.999 0.0501351C113.814 0.468042 113.607 0.886376 113.405 1.29655C111.39 5.37279 109.478 9.49769 107.55 13.6146C107.129 14.5134 106.636 15.4626 106.253 16.3658C107.578 16.4774 109.647 16.264 110.844 16.4382C109.671 18.3204 108.43 20.2052 107.244 22.0885C106.596 22.1982 104.707 22.0809 103.882 22.1268C103.466 23.139 103.011 24.126 102.581 25.1315C102.222 25.9702 101.877 26.8196 101.493 27.6468C100.834 27.7018 99.7188 27.6659 99.0138 27.6628C97.5506 27.6515 96.0874 27.6541 94.6243 27.6707C94.1977 27.6748 93.7898 27.6855 93.3642 27.648C93.9904 26.0037 94.8278 24.336 95.5219 22.7116C95.5897 22.5533 95.6523 22.3944 95.7115 22.2328L95.6819 22.1712C95.4626 22.0776 93.5036 22.1259 93.0713 22.1273L84.8441 22.1222C83.8477 22.1206 81.7903 22.1973 80.9204 22.0825C81.3618 20.8244 81.945 19.4971 82.4184 18.2355C82.6926 17.5046 83.091 16.4803 83.4579 15.8172C83.5711 15.6129 84.3096 15.072 84.5527 14.8601C86.1468 13.4875 87.7552 12.1314 89.3779 10.7921L97.0509 4.34813C98.6899 2.95841 100.336 1.57542 101.979 0.19026C102.115 0.0756085 102.202 0.0642709 102.373 0.0380863ZM91.3827 16.3826C92.8425 16.3969 94.3023 16.3976 95.7621 16.3846C96.3927 16.3843 97.5654 16.4346 98.1491 16.3702C98.9755 14.8431 99.9018 12.6685 100.64 11.0757L101.92 8.36891C102.061 8.07201 102.579 7.17695 102.531 6.90111L102.444 6.88076C100.612 8.31853 98.7472 10.0269 96.9411 11.536L92.6792 15.0573C92.4269 15.2677 91.2905 16.1202 91.2623 16.3262C91.3034 16.348 91.3402 16.3733 91.3827 16.3826Z" fill="#E60012"/>
<path d="M66.9924 7.20759C69.3856 7.08885 72.095 7.67919 72.8502 10.2731C73.5601 12.7103 72.0573 15.6568 71.1693 17.8884L69.0063 23.4269C68.6461 24.3337 68.318 25.2634 67.9487 26.1682C67.7634 26.6217 67.5809 27.1922 67.3497 27.6149C66.6881 27.7131 64.6679 27.6611 63.8946 27.6557C62.923 27.649 61.2186 27.7243 60.3105 27.6452C60.5149 27.0283 60.8015 26.4048 61.0251 25.7882C61.9384 23.2686 62.9903 20.8008 63.938 18.2931C64.357 17.1139 64.9374 15.9273 65.2426 14.7179C65.8927 12.1396 62.7567 12.3534 61.2506 13.0703C59.7611 13.7792 59.1999 14.4256 58.6338 15.9261C57.6808 18.5012 56.5936 21.1167 55.6335 23.7014C55.3263 24.5282 54.4636 26.8825 54.0986 27.5654C53.9931 27.6294 53.8025 27.6489 53.6816 27.6447C51.5296 27.5703 49.296 27.7452 47.1553 27.6655C47.3148 27.0563 47.8964 25.5754 48.1462 24.9281L49.7082 20.8845L52.1702 14.4374C53.0334 12.2237 53.9921 9.92237 54.8094 7.70205C55.6062 7.6328 57.1133 7.65699 57.9483 7.65998C59.0408 7.66392 60.7094 7.60642 61.744 7.71676C61.4402 8.42478 61.0461 9.21975 60.717 9.92645C61.2229 9.64255 61.7813 9.14262 62.2848 8.82428C63.885 7.81286 65.1351 7.33984 66.9924 7.20759Z" fill="#0F172A"/>
<path d="M45.5149 7.6803C45.7953 7.67006 46.8987 7.65398 47.1094 7.67238C47.6989 7.7238 52.1114 7.54663 52.3603 7.77204C52.28 8.25404 51.4871 10.1969 51.2711 10.7623L48.4217 18.1591L45.6577 25.4498C45.4098 26.088 45.1437 26.8683 44.8518 27.4931C44.7873 27.6307 44.6593 27.6261 44.5146 27.6543C43.1135 27.6336 41.712 27.6343 40.3109 27.6563C39.6269 27.6621 38.3639 27.7107 37.7567 27.6081L37.731 27.5543C37.8169 27.1807 38.0739 26.5932 38.2182 26.2127L39.2476 23.5133L42.2523 15.6925L44.2695 10.4732C44.5944 9.61942 44.9201 8.72436 45.2636 7.87564C45.3243 7.72674 45.383 7.72878 45.5149 7.6803Z" fill="#0F172A"/>
<path d="M77.6571 7.68091L81.6253 7.66468C82.5143 7.66245 83.5747 7.64367 84.4508 7.70358C84.1828 8.75466 83.6387 9.80066 83.2231 10.805C82.7469 11.9567 82.3232 13.1329 81.8589 14.2905C80.4621 17.7703 79.1671 21.2919 77.7981 24.7828C77.5807 25.3368 76.9411 27.2563 76.6392 27.5749C76.537 27.6828 76.3621 27.6679 76.2236 27.6726C74.8001 27.6321 73.3627 27.6546 71.9387 27.6488C71.1816 27.6456 70.3418 27.6912 69.5952 27.6468C69.8465 26.8289 70.382 25.5466 70.7044 24.7137L72.8779 19.1241L75.7407 11.7194C76.2508 10.3969 76.7032 9.09287 77.2721 7.78564C77.4235 7.67725 77.4527 7.70548 77.6571 7.68091Z" fill="#0F172A"/>
<path d="M80.5165 0.0400587L84.7995 0.0300977C85.3312 0.0275361 87.0212 -0.0150134 87.4506 0.0910525L87.4812 0.159027C87.4354 0.449475 87.2338 0.873124 87.1182 1.16352C86.5593 2.56529 85.9913 3.97066 85.409 5.36238C85.3364 5.53542 85.249 5.54837 85.0875 5.59875C83.5489 5.62005 81.9993 5.57394 80.4587 5.59623C79.7064 5.60714 78.8795 5.61179 78.1362 5.53485C78.3861 4.40356 79.801 1.40663 80.2543 0.15267C80.2849 0.067144 80.4148 0.0626856 80.5165 0.0400587Z" fill="#0F172A"/>
<path d="M48.4523 0.0429191C49.4693 -0.00987665 50.708 0.0386035 51.7445 0.0193447C52.3182 0.00867169 55.0946 -0.0470182 55.4208 0.148891C55.4356 0.30187 55.3195 0.679648 55.2455 0.795058C54.8304 1.44293 53.629 5.26047 53.2082 5.5865C52.3345 5.64812 50.6793 5.57469 49.7316 5.57801C48.9076 5.58085 46.8854 5.63019 46.186 5.53778C46.2028 5.46416 46.2214 5.39097 46.2424 5.31839C46.4435 4.62885 46.946 3.57208 47.2088 2.84062C47.5097 2.00267 47.9063 1.07507 48.2512 0.247035C48.3109 0.103732 48.3343 0.106957 48.4523 0.0429191Z" fill="#0F172A"/>
<path fill-rule="evenodd" clip-rule="evenodd" d="M107.655 24.0111C108.753 23.907 109.731 24.6995 109.848 25.7885C109.965 26.8777 109.177 27.8575 108.082 27.9858C107.362 28.0699 106.653 27.7637 106.224 27.184C105.795 26.6043 105.713 25.8405 106.009 25.184C106.305 24.5274 106.934 24.0796 107.655 24.0111ZM109.485 25.7074C109.329 24.8041 108.468 24.1947 107.557 24.3422C106.636 24.4915 106.013 25.358 106.17 26.2719C106.329 27.1859 107.207 27.7973 108.126 27.6332C109.034 27.4708 109.641 26.611 109.485 25.7074ZM107.27 24.9037C107.725 24.8639 108.22 24.8256 108.561 25.1801C108.966 25.6004 108.567 25.9908 108.261 26.2533C108.405 26.4974 108.766 26.9051 108.749 27.183L108.656 27.2201C108.538 27.1693 108.475 27.1118 108.374 27.0336C108.238 26.8228 107.967 26.2764 107.721 26.265C107.487 26.4261 107.441 26.8166 107.373 27.101C107.205 27.128 107.261 27.1446 107.144 27.0649C107.077 26.7567 107.047 25.248 107.129 24.9652L107.27 24.9037ZM107.537 25.2289C107.269 25.8849 107.595 26.0003 108.178 25.9086C108.541 25.3086 108.053 25.1728 107.537 25.2289Z" fill="#E60012"/>
</svg>
